<svg xmlns="http://www.w3.org/2000/svg" width="1024" height="1536" viewBox="0 0 512 768" role="img" aria-labelledby="title desc">
  <title id="title">Crucial Conversations cover</title>
  <desc id="desc">Generated editorial cover for Crucial Conversations by Kerry Patterson, Joseph Grenny, Ron McMillan, and Al Switzler.</desc>
  <defs>
    <linearGradient id="g" x1="0" x2="1" y1="0" y2="1">
      <stop stop-color="#243747" offset="0"/>
      <stop stop-color="#121d27" offset="1"/>
    </linearGradient>
    <filter id="paper"><feTurbulence type="fractalNoise" baseFrequency=".018" numOctaves="3"/><feColorMatrix type="saturate" values="0"/><feComponentTransfer><feFuncA type="table" tableValues="0 .08"/></feComponentTransfer></filter>
  </defs>
  <rect width="512" height="768" fill="url(#g)"/>
  <rect x="0" y="0" width="76" height="768" fill="#000" opacity=".18"/>
  <rect x="78" y="0" width="2" height="768" fill="#fff" opacity=".09"/>
  <rect width="512" height="768" filter="url(#paper)" opacity=".55"/>
  <path d="M430-20c-70 110-60 224 22 342 48 68 54 146 18 234" fill="none" stroke="#f8efe2" stroke-width="24" opacity=".06"/>
  
      <path d="M132 330h190c22 0 40 18 40 40v54c0 22-18 40-40 40h-70l-56 50 12-50h-76c-22 0-40-18-40-40v-54c0-22 18-40 40-40Z" fill="#f8efe2" opacity=".18"/>
      <circle cx="170" cy="398" r="10" fill="#e9b45f"/><circle cx="226" cy="398" r="10" fill="#e9b45f"/><circle cx="282" cy="398" r="10" fill="#e9b45f"/>
  <g transform="translate(102 92)">
    <text x="0" y="0" fill="#f8efe2" font-family="Inter, Arial, sans-serif" font-size="14" font-weight="700" letter-spacing="5" opacity=".76">KERRY PATTERSON,</text><text x="0" y="20" fill="#f8efe2" font-family="Inter, Arial, sans-serif" font-size="14" font-weight="700" letter-spacing="5" opacity=".76">JOSEPH GRENNY, RON</text>
  </g>
  <g transform="translate(102 150)">
    <text x="0" y="0" fill="#f8efe2" font-family="Georgia, 'Times New Roman', serif" font-size="42" font-weight="700">Crucial</text><text x="0" y="50" fill="#f8efe2" font-family="Georgia, 'Times New Roman', serif" font-size="42" font-weight="700">Conversations</text>
  </g>
  <rect x="102" y="612" width="196" height="34" fill="#e9b45f" opacity=".95"/>
  <text x="102" y="696" fill="#f8efe2" font-family="Inter, Arial, sans-serif" font-size="18" font-weight="700" letter-spacing="6" opacity=".76">2002</text>
</svg>
