<svg xmlns="http://www.w3.org/2000/svg" width="1024" height="1536" viewBox="0 0 512 768" role="img" aria-labelledby="title desc">
  <title id="title">Good Strategy Bad Strategy cover</title>
  <desc id="desc">Generated editorial cover for Good Strategy Bad Strategy by Richard Rumelt.</desc>
  <defs>
    <linearGradient id="g" x1="0" x2="1" y1="0" y2="1">
      <stop stop-color="#243747" offset="0"/>
      <stop stop-color="#121d27" offset="1"/>
    </linearGradient>
    <filter id="paper"><feTurbulence type="fractalNoise" baseFrequency=".018" numOctaves="3"/><feColorMatrix type="saturate" values="0"/><feComponentTransfer><feFuncA type="table" tableValues="0 .08"/></feComponentTransfer></filter>
  </defs>
  <rect width="512" height="768" fill="url(#g)"/>
  <rect x="0" y="0" width="76" height="768" fill="#000" opacity=".18"/>
  <rect x="78" y="0" width="2" height="768" fill="#fff" opacity=".09"/>
  <rect width="512" height="768" filter="url(#paper)" opacity=".55"/>
  <path d="M430-20c-70 110-60 224 22 342 48 68 54 146 18 234" fill="none" stroke="#f8efe2" stroke-width="24" opacity=".06"/>
  
      <path d="M116 300c64-46 105-8 156-54 42-38 94-20 134 14" fill="none" stroke="#f8efe2" stroke-width="10" opacity=".24"/>
      <path d="M126 430c72-70 128-15 198-72 37-30 76-28 112-5" fill="none" stroke="#f8efe2" stroke-width="10" opacity=".24"/>
      <circle cx="202" cy="375" r="42" fill="#e9b45f"/><path d="m202 344 16 44-48-16h64l-48 16Z" fill="#f8efe2" opacity=".78"/>
  <g transform="translate(102 92)">
    <text x="0" y="0" fill="#f8efe2" font-family="Inter, Arial, sans-serif" font-size="14" font-weight="700" letter-spacing="5" opacity=".76">RICHARD RUMELT</text>
  </g>
  <g transform="translate(102 150)">
    <text x="0" y="0" fill="#f8efe2" font-family="Georgia, 'Times New Roman', serif" font-size="42" font-weight="700">Good Strategy</text><text x="0" y="50" fill="#f8efe2" font-family="Georgia, 'Times New Roman', serif" font-size="42" font-weight="700">Bad Strategy</text>
  </g>
  <rect x="102" y="612" width="196" height="34" fill="#e9b45f" opacity=".95"/>
  <text x="102" y="696" fill="#f8efe2" font-family="Inter, Arial, sans-serif" font-size="18" font-weight="700" letter-spacing="6" opacity=".76">2011</text>
</svg>
