<svg xmlns="http://www.w3.org/2000/svg" width="1024" height="1536" viewBox="0 0 512 768" role="img" aria-labelledby="title desc">
  <title id="title">The Checklist Manifesto cover</title>
  <desc id="desc">Generated editorial cover for The Checklist Manifesto by Atul Gawande.</desc>
  <defs>
    <linearGradient id="g" x1="0" x2="1" y1="0" y2="1">
      <stop stop-color="#2f3c61" offset="0"/>
      <stop stop-color="#161d34" offset="1"/>
    </linearGradient>
    <filter id="paper"><feTurbulence type="fractalNoise" baseFrequency=".018" numOctaves="3"/><feColorMatrix type="saturate" values="0"/><feComponentTransfer><feFuncA type="table" tableValues="0 .08"/></feComponentTransfer></filter>
  </defs>
  <rect width="512" height="768" fill="url(#g)"/>
  <rect x="0" y="0" width="76" height="768" fill="#000" opacity=".18"/>
  <rect x="78" y="0" width="2" height="768" fill="#fff" opacity=".09"/>
  <rect width="512" height="768" filter="url(#paper)" opacity=".55"/>
  <path d="M430-20c-70 110-60 224 22 342 48 68 54 146 18 234" fill="none" stroke="#f5f0e6" stroke-width="24" opacity=".06"/>
  
      <path d="M132 345 238 260l128 86-54 132-150-8Z" fill="none" stroke="#f5f0e6" stroke-width="8" opacity=".3"/>
      <circle cx="132" cy="345" r="24" fill="#9fc5d7"/><circle cx="238" cy="260" r="22" fill="#f5f0e6" opacity=".78"/>
      <circle cx="366" cy="346" r="24" fill="#9fc5d7"/><circle cx="312" cy="478" r="22" fill="#f5f0e6" opacity=".78"/><circle cx="162" cy="470" r="20" fill="#9fc5d7"/>
  <g transform="translate(102 92)">
    <text x="0" y="0" fill="#f5f0e6" font-family="Inter, Arial, sans-serif" font-size="14" font-weight="700" letter-spacing="5" opacity=".76">ATUL GAWANDE</text>
  </g>
  <g transform="translate(102 150)">
    <text x="0" y="0" fill="#f5f0e6" font-family="Georgia, 'Times New Roman', serif" font-size="42" font-weight="700">The Checklist</text><text x="0" y="50" fill="#f5f0e6" font-family="Georgia, 'Times New Roman', serif" font-size="42" font-weight="700">Manifesto</text>
  </g>
  <rect x="102" y="612" width="196" height="34" fill="#9fc5d7" opacity=".95"/>
  <text x="102" y="696" fill="#f5f0e6" font-family="Inter, Arial, sans-serif" font-size="18" font-weight="700" letter-spacing="6" opacity=".76">2009</text>
</svg>
